# xmcd
#
# Track frame offsets:
#	150
#	19692
#	33044
#	53150
#	64489
#	75749
#	92411
#	117643
#	132265
#	144716
#	162118
#
# Disc length: 2384 seconds
#
# Revision: 0
# Processed by: cddbd v1.4PL0 Copyright (c) Steve Scherf et al.
# Submitted via: EasyCDDAExtractor 4.6.0.1
#
DISCID=8f094e0b
DTITLE=Spectrum - Spectrum plays the blues
DYEAR=1999
DGENRE=Blues
TTITLE0=Baby please dont go
TTITLE1=I wanna know
TTITLE2=Hoochie Coochie man
TTITLE3=Sitting on top of the world
TTITLE4=Crossroads
TTITLE5=Manuela
TTITLE6=Lowdown summer bles
TTITLE7=I wonder whose kissing her now
TTITLE8=(I'm not on a ) healthkick
TTITLE9=I just wanna make love to you
TTITLE10=Louie louie
EXTD=
EXTT0=
EXTT1=
EXTT2=
EXTT3=
EXTT4=
EXTT5=
EXTT6=
EXTT7=
EXTT8=
EXTT9=
EXTT10=
PLAYORDER=
